<svg width="37" height="37" viewBox="0 0 37 37" fill="none" xmlns="http://www.w3.org/2000/svg">
<path d="M1 17.4042C1.08945 16.7521 1.15152 16.0945 1.272 15.4478C2.18386 10.5549 4.71039 6.70602 8.82514 3.92301C11.8564 1.87343 15.2373 0.854118 18.8856 1.01761C25.9906 1.33637 31.1596 4.75234 34.3315 11.1112C35.7508 13.9572 36.2401 17.0252 35.8932 20.1827C35.2524 26.0063 32.3955 30.4662 27.4154 33.5397C25.0906 34.9736 22.5376 35.7463 19.8121 35.9464C19.7354 35.9519 19.6597 35.982 19.5839 36.0003H17.3978C17.3221 35.982 17.2463 35.9519 17.1696 35.9464C13.8554 35.6934 10.8424 34.6019 8.17616 32.6208C4.43291 29.8396 2.11723 26.146 1.272 21.5481C1.15334 20.9015 1.08945 20.2448 1 19.5917C1 18.8629 1 18.1331 1 17.4042ZM18.4913 2.75026C9.80454 2.75026 2.7735 9.774 2.75434 18.471C2.73517 27.1708 9.76346 34.2238 18.4731 34.2448C27.1608 34.2658 34.2192 27.2137 34.2274 18.5057C34.2356 9.8014 27.1927 2.75026 18.4913 2.74934V2.75026Z" fill="#AFAFA7" stroke="#AFAFA7" stroke-width="0.5"/>
<path d="M19.3703 17.6177C21.1146 17.6177 22.7996 17.6159 24.4846 17.6186C25.0687 17.6195 25.4457 17.9383 25.474 18.4361C25.506 18.9914 25.1217 19.3732 24.5047 19.3759C23.2295 19.3814 21.9544 19.3778 20.6783 19.3778C20.2585 19.3778 19.8386 19.3778 19.3703 19.3778C19.3703 19.5202 19.3703 19.6408 19.3703 19.7614C19.3703 21.3451 19.3731 22.9289 19.3685 24.5127C19.3667 25.0625 19.0664 25.4306 18.6027 25.4808C18.0195 25.5439 17.6151 25.1502 17.6133 24.4971C17.6087 22.9243 17.6114 21.3524 17.6114 19.7796C17.6114 19.6572 17.6114 19.5348 17.6114 19.3778C17.4545 19.3778 17.3331 19.3778 17.2107 19.3778C15.639 19.3778 14.0681 19.3805 12.4963 19.3759C11.9267 19.375 11.5534 19.0709 11.5096 18.5913C11.4576 18.0196 11.8446 17.6214 12.4771 17.6186C13.8207 17.6131 15.1643 17.6168 16.5079 17.6168C16.8593 17.6168 17.2107 17.6168 17.6105 17.6168C17.6105 17.4743 17.6105 17.3537 17.6105 17.2332C17.6105 15.6494 17.6078 14.0656 17.6124 12.4819C17.6142 11.9202 17.93 11.5457 18.4119 11.5101C18.9815 11.468 19.3658 11.8562 19.3676 12.4965C19.3722 14.0693 19.3694 15.6412 19.3694 17.214C19.3694 17.3364 19.3694 17.4588 19.3694 17.6177H19.3703Z" fill="#AFAFA7" stroke="#AFAFA7" stroke-width="0.5"/>
</svg>
