<svg width="37" height="37" viewBox="0 0 37 37" fill="none" xmlns="http://www.w3.org/2000/svg">
<path d="M16.3222 12.4715C15.7256 13.4272 15.1892 14.3829 14.5585 15.2704C13.9833 16.079 13.7477 16.8896 13.8587 17.9028C14.0066 19.255 13.9074 20.6218 13.4801 21.9965C13.8947 21.9965 14.2763 21.9965 14.6568 21.9965C15.1552 21.9965 15.6526 21.9916 16.1509 21.9974C17.4503 22.014 18.4733 23.0106 18.484 24.3044C18.4986 26.1038 18.4976 27.9032 18.484 29.7026C18.4772 30.5141 18.2037 31.2545 17.7365 31.9131C16.8653 33.1416 15.9786 34.3594 15.1026 35.585C14.9245 35.8334 14.7337 36.0555 14.3921 35.9863C14.0563 35.9181 13.956 35.6512 13.8811 35.3502C13.6193 34.2902 13.3497 33.2312 13.0654 32.1761C12.9759 31.842 13.0031 31.5614 13.2397 31.2974C13.4178 31.0986 13.5881 30.8892 13.7302 30.6641C13.9687 30.2871 14.285 30.101 14.7357 30.1653C14.8048 30.1751 14.8768 30.1605 14.9693 30.1556V25.5154H11.5704C11.7417 25.8427 11.9072 26.1476 12.0629 26.4565C12.4308 27.1842 12.6712 27.947 12.5603 28.7722C12.3792 30.1059 11.3767 31.049 9.93423 31.2574C9.61109 31.3042 9.2821 31.3305 8.95604 31.3315C6.57624 31.3373 4.19547 31.3354 1.81568 31.3344C1.06038 31.3344 0.832616 30.9691 1.1616 30.2832C1.58695 29.3967 2.02981 28.5189 2.43861 27.6246C2.61576 27.2359 2.8805 27.0732 3.29514 27.1004C3.52485 27.116 3.75845 27.1267 3.98718 27.1043C4.56923 27.0488 5.06466 27.1774 5.42674 27.6781C5.48611 27.76 5.62724 27.8243 5.73139 27.8253C6.61615 27.8369 7.50091 27.8321 8.45574 27.8321C8.33797 27.6635 8.24745 27.5437 8.16569 27.4171C7.96519 27.1063 8.0158 26.7663 8.28444 26.5773C8.55113 26.3902 8.86844 26.4331 9.08938 26.7166C9.43297 27.1569 9.77071 27.6031 10.087 28.0639C10.379 28.4897 10.1221 28.9895 9.60427 28.9943C8.18321 29.007 6.76215 29.0177 5.34206 28.9787C5.10943 28.9719 4.82911 28.7556 4.66754 28.5569C4.32882 28.138 3.89374 28.3114 3.48981 28.2812C3.45185 28.2783 3.39248 28.3465 3.36814 28.3952C3.08782 28.97 2.8114 29.5467 2.51453 30.1663C2.80653 30.1663 3.04597 30.1663 3.28541 30.1663C5.17951 30.1663 7.07459 30.18 8.96869 30.1566C9.42226 30.1507 9.8953 30.0825 10.3216 29.9345C11.1713 29.6393 11.6025 28.8901 11.365 28.0269C11.184 27.3693 10.8375 26.7585 10.5669 26.1252C10.3761 25.6781 10.1318 25.3059 9.61011 25.1754C9.41058 25.1257 9.20131 24.9815 9.06797 24.8217C8.81782 24.5197 8.55989 24.5684 8.23188 24.6532C6.08374 25.2124 3.89374 25.4657 1.67747 25.4939C1.27354 25.4988 1.01658 25.2738 1.0049 24.9328C0.992243 24.5791 1.2531 24.3375 1.67455 24.3307C3.69616 24.2966 5.69343 24.0677 7.66053 23.5991C7.80069 23.5659 7.93891 23.5241 8.05376 23.4919C8.03429 22.8314 8.00899 22.1942 7.99925 21.5571C7.99244 21.0973 8.21728 20.8303 8.58033 20.8303C8.94338 20.8303 9.15849 21.0982 9.16238 21.5581C9.1653 21.862 9.16238 22.166 9.16238 22.4699C9.16822 23.5864 9.89822 24.3249 11.0078 24.3288C12.4649 24.3327 13.922 24.3288 15.38 24.3307C15.9718 24.3307 16.1577 24.5207 16.1577 25.1198C16.1587 26.9309 16.1587 28.743 16.1577 30.5541C16.1577 31.1454 15.966 31.314 15.3683 31.3403C15.088 31.3529 14.7824 31.2117 14.5303 31.5234C14.2928 31.8157 14.2072 32.0748 14.3308 32.4441C14.4933 32.9253 14.5965 33.427 14.7259 33.92C14.7289 33.9297 14.7405 33.9366 14.7785 33.9794C14.8466 33.9025 14.9187 33.8343 14.9761 33.7544C15.5737 32.9273 16.1743 32.1031 16.7621 31.2682C17.1262 30.7499 17.3267 30.1741 17.3247 29.5301C17.3199 27.8525 17.3247 26.1749 17.3228 24.4963C17.3228 23.6263 16.8643 23.1636 16.0039 23.1626C15.0812 23.1607 14.1575 23.1646 13.2348 23.1616C12.3724 23.1577 11.9909 22.6122 12.2965 21.8094C12.8172 20.4416 12.7618 19.0192 12.6985 17.5969C12.6829 17.2578 12.607 16.9188 12.6148 16.5808C12.6206 16.3645 12.6868 16.1238 12.7997 15.9387C13.6339 14.57 14.4826 13.2099 15.3382 11.8548C15.4735 11.6405 15.5338 11.4602 15.3946 11.2245C15.3168 11.0929 15.2817 10.9293 15.2525 10.7753C15.1941 10.4763 15.3615 10.1976 15.6321 10.1129C15.9251 10.0213 16.2239 10.1596 16.3563 10.449C16.9802 11.8158 18.0002 12.3994 19.4807 12.2834C19.6909 12.2669 19.9625 12.3731 20.124 12.5153C20.9144 13.2168 21.6823 13.9435 22.4454 14.6752C22.6206 14.8427 22.7579 14.8934 22.9798 14.7619C23.3029 14.5709 23.6485 14.4189 23.9813 14.2436C24.3639 14.0419 24.4855 13.6854 24.2889 13.2927C24.1478 13.0112 23.9784 12.7433 23.8207 12.4695C22.571 10.3028 21.3212 8.13617 20.0734 5.96852C20.0072 5.85356 19.9303 5.73666 19.8982 5.61098C19.8301 5.34599 19.9264 5.12484 20.1591 4.98748C20.4034 4.84329 20.6545 4.86083 20.8589 5.06834C20.9592 5.16966 21.0312 5.30215 21.1032 5.42783C22.4824 7.8137 23.8402 10.2132 25.2467 12.5835C25.8336 13.5733 25.491 14.8973 24.4174 15.3415C23.9482 15.5354 23.5064 15.7965 23.0508 16.0245C22.5759 16.2622 22.423 16.2398 22.0454 15.8861C21.2463 15.1399 20.4501 14.3907 19.6442 13.6513C19.5459 13.5607 19.3979 13.4652 19.2763 13.4691C18.1842 13.5071 17.2255 13.1583 16.3251 12.4695L16.3222 12.4715Z" fill="#AFAFA7" stroke="#AFAFA7" stroke-width="0.5"/>
<path d="M26.7028 27.8837C27.353 27.1307 27.9671 26.4604 28.5307 25.7492C28.8509 25.3449 28.9852 24.8461 28.9823 24.3151C28.9755 22.9775 29.0076 21.6399 28.9628 20.3043C28.9492 19.9009 28.7964 19.4732 28.6027 19.1128C28.372 18.6841 27.9399 18.4912 27.4386 18.4932C26.6619 18.4971 25.8842 18.4951 25.1075 18.4932C24.5887 18.4932 24.3113 18.2827 24.3181 17.8999C24.3249 17.5287 24.5936 17.328 25.09 17.327C25.819 17.3261 26.548 17.3543 27.2751 17.3212C28.92 17.2462 30.0822 18.5594 30.1289 20.0568C30.1756 21.563 30.162 23.072 30.1308 24.5782C30.1143 25.377 29.798 26.096 29.2772 26.703C28.5015 27.6061 27.7014 28.4887 26.9169 29.384C26.7349 29.5915 26.5315 29.7201 26.2492 29.6558C25.9601 29.5896 25.8492 29.3636 25.7869 29.1044C25.5416 28.0903 25.3012 27.0741 25.051 26.0609C24.9625 25.7005 25.0355 25.4189 25.3635 25.2124C25.5786 25.077 25.7723 24.9055 25.9893 24.773C26.2716 24.6016 26.5675 24.4525 26.8965 24.2723V20.8274C26.2288 20.8274 25.6019 20.8206 24.9741 20.8294C24.2179 20.8401 23.4655 20.8391 22.7734 20.467C22.6245 20.3871 22.4493 20.3208 22.3442 20.199C22.0717 19.8844 21.8089 19.9613 21.4585 20.0753C19.9284 20.5751 18.3604 20.8732 16.7398 20.8294C16.3641 20.8186 15.9864 20.8352 15.6107 20.8255C15.236 20.8157 14.9917 20.5809 14.9897 20.2497C14.9868 19.9185 15.2311 19.673 15.6019 19.6652C16.112 19.6544 16.622 19.6622 17.132 19.6613C18.4801 19.6613 19.7785 19.37 21.0633 18.9959C21.3203 18.9209 21.4517 18.803 21.4069 18.5107C21.3757 18.309 21.3903 18.0976 21.4049 17.8921C21.4273 17.5657 21.6629 17.3397 21.9646 17.3299C22.2809 17.3202 22.5282 17.553 22.5622 17.894C22.5661 17.9301 22.5642 17.9671 22.5651 18.0031C22.5963 19.1235 23.1102 19.6398 24.251 19.6574C25.2584 19.673 26.2667 19.6603 27.2741 19.6622C27.8494 19.6632 28.0314 19.8454 28.0411 20.4231C28.0645 21.8455 28.0888 23.2669 28.1083 24.6892C28.116 25.266 27.9525 25.4374 27.3695 25.4988C27.2011 25.5164 27.023 25.5242 26.8712 25.5885C26.3271 25.8184 26.2424 26.0103 26.3845 26.589C26.4828 26.9874 26.5801 27.3869 26.7018 27.8828L26.7028 27.8837Z" fill="#AFAFA7" stroke="#AFAFA7" stroke-width="0.5"/>
<path d="M2.46778 12.6566C2.17675 12.6566 1.88476 12.6664 1.59373 12.6537C1.2443 12.6391 1.00778 12.4024 0.999998 12.0867C0.992211 11.7555 1.23652 11.5041 1.60444 11.4944C2.06579 11.4827 2.52715 11.4827 2.98851 11.4924C3.6825 11.508 4.20226 11.2089 4.57796 10.641C5.36539 9.45242 6.24528 8.3418 7.27117 7.34712C9.50399 5.18239 12.1894 3.96558 15.2457 3.54764C16.146 3.42489 17.059 3.40248 17.9642 3.31577C18.1131 3.30116 18.2902 3.22615 18.3905 3.11898C18.8382 2.64064 19.2616 2.13794 19.6977 1.6479C20.0014 1.30595 20.342 1.24749 20.6136 1.48131C20.892 1.72097 20.8842 2.06195 20.5805 2.41072C20.0695 2.9972 19.5478 3.57297 19.0417 4.16335C18.8441 4.39424 18.6173 4.49069 18.3126 4.49166C16.4711 4.49653 14.6578 4.69917 12.8951 5.26617C10.1561 6.14687 8.05178 7.87709 6.35137 10.15C6.11096 10.4705 5.87249 10.7939 5.65836 11.132C4.99065 12.1861 4.05334 12.72 2.79482 12.6586C2.68581 12.6537 2.57582 12.6586 2.46681 12.6586C2.46681 12.6586 2.46681 12.6586 2.46681 12.6576L2.46778 12.6566Z" fill="#AFAFA7" stroke="#AFAFA7" stroke-width="0.5"/>
<path d="M27.751 10.1441C27.4707 10.599 27.2128 11.0218 26.949 11.4427C26.7047 11.8334 26.3786 11.9454 26.072 11.7535C25.7683 11.5635 25.7245 11.2186 25.9601 10.8289C26.1606 10.4967 26.3621 10.1635 26.5723 9.83717C26.7942 9.4923 27.0123 9.18347 26.8166 8.71194C26.6735 8.36804 26.9062 8.05532 27.2225 7.98127C27.5632 7.90139 27.7909 8.09916 27.9564 8.46839C28.0839 8.75383 28.2795 9.04026 28.517 9.239C29.0426 9.6774 29.6665 9.88393 30.3654 9.89368C30.5805 9.8966 30.8443 10.0038 31 10.1538C31.6901 10.8192 32.3578 11.5099 33.0138 12.2094C33.19 12.3974 33.3292 12.4111 33.5423 12.299C33.8314 12.1471 34.137 12.0272 34.4339 11.8899C34.83 11.7057 34.9147 11.4495 34.7055 11.0335C33.9073 9.45235 33.1063 7.87216 32.3052 6.29197C32.0142 5.71815 31.7203 5.14628 31.4341 4.57149C31.2316 4.16524 31.3173 3.83497 31.655 3.6752C31.9743 3.5242 32.2741 3.65474 32.4746 4.05028C33.5959 6.2569 34.7201 8.46157 35.8306 10.6731C36.2433 11.4943 35.8725 12.5075 35.0471 12.8914C34.541 13.1262 34.0339 13.357 33.5248 13.586C33.0819 13.7847 32.9058 13.7497 32.5554 13.3941C31.8565 12.6839 31.1674 11.9659 30.4588 11.2654C30.344 11.1524 30.1581 11.0735 29.9955 11.054C29.1808 10.9556 28.4508 10.6584 27.751 10.145V10.1441Z" fill="#AFAFA7" stroke="#AFAFA7" stroke-width="0.5"/>
<path d="M22.7335 5.29531C22.5651 5.15697 22.3179 5.05272 22.2721 4.891C22.2167 4.69421 22.2527 4.36687 22.386 4.24217C22.7082 3.94016 23.0878 3.68004 23.4839 3.48033C24.797 2.81688 26.2151 2.49928 27.6615 2.30249C28.2017 2.22942 28.7477 2.20896 29.2908 2.15246C29.4183 2.13882 29.5468 2.08816 29.6636 2.03068C30.2836 1.72575 30.8978 1.4101 31.5168 1.10322C31.9003 0.912269 32.2303 0.99313 32.3928 1.30683C32.5564 1.62248 32.4308 1.943 32.0483 2.13979C31.3368 2.50513 30.6438 2.9221 29.8992 3.19975C29.4281 3.37511 28.8772 3.33517 28.3623 3.3907C27.0074 3.53683 25.6759 3.79597 24.4193 4.33764C23.991 4.52177 23.6076 4.80917 23.2017 5.04688C23.0703 5.12384 22.933 5.19204 22.7345 5.29726L22.7335 5.29531Z" fill="#AFAFA7" stroke="#AFAFA7" stroke-width="0.5"/>
<path d="M21.219 24.3298C20.9036 24.3298 20.5883 24.3386 20.2729 24.3278C19.9001 24.3152 19.6568 24.0775 19.6558 23.7472C19.6558 23.416 19.8992 23.1734 20.27 23.1666C20.816 23.1568 21.3621 23.1675 21.9081 23.1617C22.6157 23.1549 23.0742 22.7379 23.1491 22.0433C23.1949 21.6214 23.4431 21.3789 23.7925 21.4169C24.1293 21.4529 24.3278 21.7237 24.3122 22.1271C24.2665 23.2903 23.2786 24.2723 22.093 24.3249C21.802 24.3376 21.511 24.3269 21.22 24.3269C21.22 24.3269 21.22 24.3288 21.22 24.3298H21.219Z" fill="#AFAFA7" stroke="#AFAFA7" stroke-width="0.5"/>
</svg>
