<svg width="36" height="36" viewBox="0 0 36 36" fill="none" xmlns="http://www.w3.org/2000/svg">
<g clip-path="url(#clip0_11_556)">
<path d="M22.5 7.24264C22.894 6.84867 23.3617 6.53616 23.8764 6.32295C24.3912 6.10974 24.9428 6 25.5 6C26.0572 6 26.6088 6.10974 27.1236 6.32295C27.6383 6.53616 28.106 6.84867 28.5 7.24264C28.894 7.63661 29.2065 8.10431 29.4197 8.61905C29.6329 9.13379 29.7426 9.68549 29.7426 10.2426C29.7426 10.7998 29.6329 11.3515 29.4197 11.8662C29.2065 12.381 28.894 12.8487 28.5 13.2426L8.25 33.4926L0 35.7426L2.25 27.4926L22.5 7.24264Z" stroke="#22211C" stroke-width="3" stroke-linecap="round" stroke-linejoin="round"/>
</g>
<defs>
<clipPath id="clip0_11_556">
<rect width="36" height="36" fill="white"/>
</clipPath>
</defs>
</svg>
