<svg width="37" height="37" viewBox="0 0 37 37" fill="none" xmlns="http://www.w3.org/2000/svg">
<path d="M32.2542 18.1839C32.2542 18.3664 32.2542 18.5061 32.2542 18.6459C32.2542 21.8215 32.2542 24.9982 32.2542 28.1739C32.2542 28.2907 32.2615 28.4096 32.249 28.5253C32.2125 28.8674 31.9516 29.1135 31.6322 29.1146C31.315 29.1156 31.0468 28.8684 31.0113 28.5305C30.9988 28.4148 31.0061 28.2969 31.0061 28.1791C31.0061 24.6259 31.0092 21.0727 30.9967 17.5185C30.9967 17.3412 30.9059 17.1044 30.7744 16.9949C26.7534 13.6263 22.7221 10.2703 18.6917 6.9121C18.6416 6.87038 18.5894 6.83284 18.5153 6.77652C18.4266 6.84327 18.3317 6.90689 18.245 6.97989C16.1046 8.76222 13.9653 10.5456 11.8238 12.3279C11.684 12.4447 11.5494 12.574 11.3907 12.6585C11.1058 12.8118 10.8272 12.768 10.6185 12.5146C10.4118 12.2633 10.4087 11.9848 10.6206 11.7303C10.7197 11.6114 10.846 11.5155 10.966 11.4154C13.2953 9.47244 15.6246 7.53055 17.9539 5.58865C18.387 5.22676 18.6166 5.22363 19.0497 5.58448C23.4411 9.24092 27.8304 12.8994 32.2219 16.5569C32.3617 16.6737 32.4995 16.7926 32.6424 16.9063C33.2456 17.386 33.997 17.3349 34.4562 16.7843C34.9237 16.2232 34.8455 15.4984 34.2391 14.9915C32.4629 13.5033 30.6805 12.0234 28.9001 10.5404C25.8393 7.99151 22.7794 5.4416 19.7186 2.89273C19.5683 2.76758 19.4212 2.63826 19.2636 2.52354C18.7314 2.13662 18.173 2.16687 17.622 2.62366C15.969 3.99404 14.319 5.36964 12.6681 6.74419C9.39746 9.46827 6.12893 12.1955 2.85414 14.9143C2.42001 15.2752 2.15702 15.6944 2.2833 16.2691C2.4868 17.1952 3.55022 17.5571 4.311 16.947C5.2544 16.1898 6.1759 15.4035 7.10678 14.6286C7.44699 14.3459 7.78616 14.0602 8.12637 13.7786C8.53963 13.4365 8.89132 13.4198 9.15326 13.7265C9.4079 14.0237 9.32859 14.4044 8.9362 14.7318C8.03662 15.4827 7.12974 16.2242 6.24269 16.9887C6.11746 17.0961 6.01414 17.3078 6.0131 17.4715C6.00162 22.587 6.00162 27.7025 6.00475 32.8179C6.00475 33.9182 6.80205 34.7379 7.8853 34.7452C9.68237 34.7567 11.4794 34.7484 13.2765 34.7484C13.3391 34.7484 13.4017 34.74 13.505 34.7338C13.505 34.5773 13.505 34.4386 13.505 34.2999C13.505 31.5539 13.5019 28.8069 13.505 26.0609C13.5092 23.1794 15.7592 20.9611 18.627 21.0028C21.2798 21.0414 23.4787 23.2399 23.4985 25.916C23.5194 28.7016 23.5037 31.4872 23.5047 34.2728C23.5047 34.4146 23.5047 34.5554 23.5047 34.7317C23.6508 34.739 23.7761 34.7494 23.9003 34.7494C25.593 34.7504 27.2857 34.7525 28.9784 34.7494C30.2265 34.7473 30.9998 33.9735 31.005 32.7283C31.0061 32.3768 30.9977 32.0253 31.0082 31.6739C31.0207 31.2807 31.2837 31.0106 31.6312 31.0116C31.9787 31.0127 32.2469 31.2838 32.2511 31.677C32.2563 32.2099 32.2907 32.7512 32.2187 33.2758C31.9954 34.8954 30.7108 35.9926 29.064 35.9967C26.1993 36.004 23.3346 35.9988 20.47 35.9988C16.3551 35.9988 12.2402 35.9988 8.12533 35.9988C6.06319 35.9988 4.75348 34.6941 4.75348 32.6406C4.75348 27.9934 4.75348 23.3473 4.75348 18.7001V18.2944C4.22438 18.357 3.69632 18.5124 3.19018 18.4592C2.13719 18.3486 1.41607 17.726 1.1176 16.7071C0.814962 15.6715 1.10925 14.7683 1.92952 14.0727C3.43855 12.7931 4.96637 11.5364 6.48689 10.2703C9.90569 7.41791 13.3266 4.56869 16.7475 1.71946C17.8683 0.786058 19.0987 0.755814 20.1872 1.66106C25.1401 5.78159 30.0898 9.90733 35.0375 14.0341C35.8097 14.6786 36.1447 15.5004 35.9402 16.4996C35.743 17.4632 35.146 18.0879 34.2183 18.3914C33.5545 18.6094 32.9106 18.4926 32.2542 18.1839ZM22.2086 34.7285C22.2263 34.6879 22.2451 34.6649 22.2451 34.642C22.2451 31.701 22.3046 28.7579 22.2253 25.819C22.1606 23.4203 19.9931 21.8518 17.6565 22.3795C15.8583 22.7852 14.7594 24.19 14.7542 26.1183C14.7469 28.8778 14.7521 31.6363 14.7542 34.3959C14.7542 34.5075 14.7688 34.619 14.7761 34.7285H22.2096H22.2086Z" fill="#AFAFA7" stroke="#AFAFA7"/>
</svg>
