<svg width="32" height="32" viewBox="0 0 32 32" fill="none" xmlns="http://www.w3.org/2000/svg">
<path d="M4 8H6.66667H28" stroke="#22211C" stroke-width="3" stroke-linecap="round" stroke-linejoin="round"/>
<path d="M25.3334 7.99996V26.6666C25.3334 27.3739 25.0524 28.0521 24.5523 28.5522C24.0522 29.0523 23.3739 29.3333 22.6667 29.3333H9.33335C8.62611 29.3333 7.94783 29.0523 7.44774 28.5522C6.94764 28.0521 6.66669 27.3739 6.66669 26.6666V7.99996M10.6667 7.99996V5.33329C10.6667 4.62605 10.9476 3.94777 11.4477 3.44767C11.9478 2.94758 12.6261 2.66663 13.3334 2.66663H18.6667C19.3739 2.66663 20.0522 2.94758 20.5523 3.44767C21.0524 3.94777 21.3334 4.62605 21.3334 5.33329V7.99996" stroke="#22211C" stroke-width="3" stroke-linecap="round" stroke-linejoin="round"/>
</svg>
