<svg width="197" height="197" viewBox="0 0 197 197" fill="none" xmlns="http://www.w3.org/2000/svg">
<rect width="197" height="197" rx="33" fill="#22211C"/>
<path d="M95.6215 97.3558C94.7912 96.3842 93.7303 95.7049 92.865 94.76C91.5568 93.3334 88.1576 87.8555 86.8061 87.4376C83.3327 86.361 82.1461 90.1303 80.4052 92.1785C78.4419 94.4903 75.5907 96.0713 73.3081 98.0496C73.0011 96.905 76.1387 95.0461 76.1387 95.0461C76.1387 95.0461 75.9945 94.4368 75.6278 93.179C75.4444 92.5511 75.0509 91.1595 74.3237 90.3196C71.9669 87.5982 70.0654 87.8494 67.3645 86.2025C66.833 85.8773 63.3411 82.1677 62.9703 81.6284C62.447 80.8708 61.4458 79.8292 60.7659 78.8925C59.8594 77.645 59.2826 75.9055 59.6225 74.3781L60.0366 76.2987C60.2694 77.3815 60.873 78.3655 61.7816 79.0016C64.1693 80.6732 67.2203 79.2672 69.7131 80.4488C71.7114 81.3957 71.9648 83.866 74.9109 83.3864C76.2685 83.1661 78.5532 81.5584 78.5635 80.0412C78.582 77.116 73.0547 73.5135 71.252 71.2923C69.8326 69.5446 70.4589 68.1097 66.8289 66.3455C66.6456 66.1356 67.55 66.1767 67.9393 66.2117C68.4461 66.257 69.2949 66.4258 70.325 66.9672C69.9583 65.1866 68.8355 64.4599 67.0329 64.7007C68.1186 63.7806 69.0971 62.9304 69.297 61.4112C67.7477 62.2449 64.9871 62.1419 63.5553 64.1902C63.4194 64.3837 63.4997 64.4084 63.3843 64.2911C63.2422 64.147 62.5253 61.9237 62.243 61.3617C62.0205 60.915 61.6888 60.246 61.2706 59.9702C60.7185 61.6685 59.6905 62.9777 60.0304 64.9087C59.6905 64.5217 59.6369 64.2437 59.3176 63.8753C58.1907 62.5763 56.7589 62.2943 55.0923 62.4404L55.7536 64.3528C52.1916 63.8526 51.4376 66.8581 47.8859 65.7341C48.3659 66.5617 49.7709 67.2575 50.665 67.3789C51.6415 67.5107 52.8488 67.2843 53.8562 67.3789L51.5117 68.2538C50.8484 68.5009 50.2139 68.8179 49.6123 69.1864C47.274 70.6233 44.7627 71.8049 41.9156 71.0844C43.265 72.7065 45.5579 72.865 47.5233 72.6756L50.356 71.8008C48.9324 73.2047 47.4512 73.8305 45.4899 74.1413C42.6305 74.5942 38.9943 73.6226 38.0054 77.258C40.6445 75.1933 42.4492 78.0629 45.047 77.82C45.836 77.7459 46.5695 77.4062 47.3235 77.2107C47.5975 77.1407 47.7561 77.2354 47.6778 77.3589C46.5283 78.3429 45.3622 80.0124 44.0437 80.7267C41.4727 82.1162 38.6668 81.3093 37.443 84.8315C37.3668 85.0477 37.3174 85.517 37.3812 86.1099C38.1888 83.5181 41.5942 84.5783 43.572 84.1686C44.9708 83.8784 46.0215 82.777 46.9588 81.791C47.1113 81.7581 47.0969 82.003 47.0577 82.0957C46.862 82.5609 45.8917 83.8125 45.5188 84.2633C44.3836 85.6282 41.827 89.5703 40.1871 89.8503C39.3075 90.0006 37.7459 89.9573 36.7673 89.6156C39.5588 92.4935 44.4434 91.9253 46.6477 88.5843C46.1224 90.8116 44.5773 93.2902 42.7211 94.6385C41.2667 95.6966 39.2003 96.1228 38.4154 98.0516C39.1014 97.9755 38.471 97.0162 43.3474 96.6209C44.911 96.4933 47.5521 94.8032 48.5019 93.5248C48.4153 95.0729 47.5212 96.868 46.5509 98.0557C45.2633 99.6326 42.8179 100.489 43.1537 102.992C43.1537 102.992 45.4693 101.102 48.2959 100.623C50.3704 100.271 51.7631 97.8499 52.1051 95.7893C53.9468 99.9291 52.3914 104.199 49.4331 107.319C45.251 111.729 38.026 113.069 34.8287 118.45C34.1715 119.555 33.7595 120.758 33.2651 121.933C29.4146 118.613 21.6088 119.43 18.1292 122.956C12.8284 128.327 15.6117 137.453 11.9426 143.532C11.1783 144.798 10.0761 146.13 8.56394 146.432C8.62163 146.797 9.6414 146.663 9.90921 146.642C12.5421 146.447 14.7485 144.993 16.1453 142.791C16.8478 141.683 17.1815 140.403 17.7275 139.225C17.5812 144.824 12.9582 149.835 7.1239 149.314C7.61216 150.111 9.26851 150.578 10.1626 150.7C13.2384 151.115 15.8362 150.362 17.9355 148.079L19.2705 146.224C18.8338 148.923 15.9001 151.581 13.5165 152.717C12.4762 153.213 11.5635 153.32 10.5149 153.629C10.2141 153.717 10.1564 153.512 10.2141 154.045C15.1564 155.263 20.8445 152.908 21.9528 147.665C22.371 147.721 20.0286 153.435 18.2446 155.074C25.7023 152.91 27.2453 145.495 25.7229 138.645C25.4942 137.619 25.0822 136.64 24.8453 135.61C24.7793 135.324 28.1477 142.696 27.4534 146.889C27.2824 147.923 26.7571 148.956 26.788 149.93C29.6557 147.307 30.4715 143.122 29.9214 139.386C29.2849 135.054 24.7773 130.099 27.0537 125.698C28.3187 123.257 30.556 122.827 33.0652 122.551C31.9136 125.97 32.338 129.395 34.1365 132.494C35.4261 134.719 38.0075 136.392 37.546 139.277C37.1237 141.92 32.2144 142.659 34.4187 145.796C35.2964 147.046 36.9939 147.039 37.34 149.051C37.6738 150.994 36.8188 151.599 36.1575 153.221C36.2893 153.363 38.6832 151.803 38.8295 150.959C38.6812 153.135 38.7162 154.561 40.5868 155.893L43.1537 154.253C43.1908 154.57 42.853 154.395 42.6779 154.71C40.7702 158.154 45.7021 158.069 47.7973 157.966C48.1249 157.95 49.7132 157.878 49.7441 157.641C48.9448 153.37 44.4867 152.9 42.2432 149.913C41.1472 148.452 40.3849 146.543 40.696 144.689C40.9885 142.947 46.3428 138.745 47.7911 137.167C51.6827 132.924 53.1454 128.051 51.8043 122.343C52.5233 123.598 53.0342 124.961 53.3123 126.38L53.4503 127.075C60.6073 125.96 67.5191 121.511 72.0843 115.961C73.6892 114.01 75.9574 110.623 76.7114 108.235C76.7547 108.102 76.7526 107.887 76.6125 107.933C74.8346 109.086 72.0472 109.693 70.3311 108.139C75.6072 109.31 78.8622 104.927 81.0727 100.864C82.1028 98.9698 83.6253 94.4059 84.8675 93.1296C86.5012 91.4498 88.2235 94.058 88.8148 95.5217C89.0269 96.0466 89.3154 97.749 89.5276 98.0002C89.9313 98.4798 91.8699 98.2925 92.2717 99.0809C91.9359 100.524 90.7554 101.039 90.9697 102.83C91.2148 104.9 92.6631 105.005 93.5634 105.965C94.2494 106.696 95.4361 106.551 95.8955 105.662C96.3549 104.773 96.6721 103.888 96.6969 103.515C96.8081 101.874 95.8131 99.1097 95.6297 97.3558H95.6215Z" fill="#FFD08A"/>
<path d="M56.2254 148.478C55.0099 147.461 53.3329 145.981 52.2019 144.884C48.4092 141.214 51.3243 140.575 53.78 137.914C56.6168 134.838 59.1384 131.024 58.8933 126.662L53.644 128.617C52.8117 132.345 50.9988 135.441 48.3989 138.194C47.2411 139.419 44.7895 140.93 44.6948 142.694C44.5567 145.292 51.5983 147.317 51.9877 149.833C52.2205 151.344 51.6848 152.283 53.7553 152.803L54.4743 151.986H54.8822L54.9852 152.398L55.2921 151.984C54.8863 153.137 55.2983 154.988 56.6333 155.278C57.8714 155.545 59.8718 155.181 61.3984 155.222C61.7321 155.23 61.9732 154.903 61.8619 154.588C61.4623 153.462 60.8545 152.128 60.1417 151.358C59.1322 150.269 57.3811 149.442 56.2274 148.478H56.2254Z" fill="#FFD08A"/>
<path d="M86.5032 102.391C85.6256 102.496 81.6928 103.758 80.8852 104.184C79.748 104.785 78.1061 107.447 77.7393 108.657C77.6528 108.946 77.7455 109.016 78.0298 108.95C80.057 108.474 82.2222 107.148 84.3936 107.348C86.2395 107.978 82.8011 112.742 82.7064 113.437C82.624 114.039 83.4624 114.446 83.2935 115.136C80.1621 114.996 78.9219 116.124 79.4328 119.306C80.1394 123.726 83.7302 120.955 84.9169 118.508C85.2671 117.785 85.3701 116.968 85.7595 116.262C86.1406 115.57 87.1439 114.901 87.3211 114.325C87.5765 113.493 87.4797 111.696 87.6795 110.566C88.038 108.54 90.0178 104.481 88.3717 102.856C87.8464 102.338 87.2057 102.307 86.5053 102.391H86.5032Z" fill="#FFD08A"/>
<path d="M114.375 66.6647C112.989 66.1912 112.146 64.3261 110.984 63.4677C110.199 62.8872 107.401 62.0473 109.035 60.6948C110.836 59.2023 112.373 60.5898 114.258 60.3634C115.78 60.1802 117.7 58.6856 119.321 58.4242C117.912 57.3579 116.108 57.8972 114.534 57.6543C113.708 57.5267 112.731 56.8967 111.917 56.7609C110.465 56.52 108.697 57.6502 108.499 55.0255C111.472 53.883 113.699 52.3741 114.381 49.0577C113.689 49.243 113.39 49.8111 112.673 50.1282C111.559 50.6202 110.172 50.6716 109.035 51.0175C108.411 51.2069 107.146 52.0015 106.773 52.0591C106.064 52.1703 105.211 50.7972 105.455 49.9223C106.153 47.417 108.135 47.1885 107.768 43.6251C107.748 43.4152 107.686 42.6576 107.385 42.6761C106.923 44.8726 104.635 45.9451 103.359 47.4026C102.581 48.2919 102.68 49.5703 101.147 49.2203C97.42 48.3701 101.526 41.1404 97.7064 40C98.1225 41.1837 97.8527 42.3365 97.3314 43.4316C96.3652 45.4593 96.2169 44.8582 96.254 47.52C96.2663 48.4278 96.8246 49.7041 94.9767 49.2142C93.0669 48.7077 91.6454 43.0899 88.4399 43.7054C89.7563 45.165 89.645 47.1082 90.3476 48.6913C90.5927 49.243 92.2017 51.0751 92.0534 51.3242C89.5338 53.5042 86.5837 50.1673 84.4061 50.1055C83.3451 50.0746 81.7176 50.7601 80.6175 50.9125C80.8235 51.5012 81.5796 51.2418 82.0637 51.4189C83.8952 52.0838 84.6183 53.5804 86.1037 54.3771C87.1214 54.9246 88.959 54.7929 88.6232 56.3368C86.7464 57.6193 84.2248 56.7238 82.1255 57.6687C81.5528 57.926 78.9385 59.9805 79.3835 60.5857C80.3929 59.8796 81.5713 59.6593 82.7889 59.754C83.6809 59.824 84.4288 60.2604 85.2714 60.3572C86.7279 60.526 90.0633 59.7602 88.5326 62.4281C87.4592 64.2994 85.2528 64.3652 84.0085 65.9318C83.7118 66.3065 82.4448 68.5647 82.6756 68.8179C83.3822 68.6471 83.9488 68.0707 84.6245 67.7845C85.465 67.4263 86.4189 67.3502 87.1997 67.0661C88.376 66.64 91.4724 64.567 92.0595 66.5494C92.3871 67.6589 90.5783 69.3305 90.1436 70.6253C89.7233 71.877 89.5297 73.3015 89.882 74.5819C90.6998 74.3946 90.7596 73.3776 91.4168 72.721C92.1316 72.0066 93.0772 71.6876 93.788 70.7674C94.3195 70.0757 94.7171 68.5174 95.5556 68.4C97.9557 68.0624 97.1913 72.4986 97.5498 73.812C97.692 74.3349 98.5922 75.1583 98.9095 75.745C99.1505 76.1917 99.0702 76.7084 99.4554 77.0481C100.146 76.3996 99.5791 75.3395 99.6491 74.5716C99.7294 73.6885 100.442 72.9001 100.57 71.9902C100.677 71.2264 100.337 69.3902 100.405 69.1576C100.516 68.7685 101.479 68.363 101.905 68.4021C103.289 68.5297 103.526 70.2507 104.122 71.1482C104.973 72.4286 106.798 73.2336 108.203 73.7544C108.386 72.6448 107.092 71.6155 106.899 70.8353C106.732 70.1622 107.165 69.1185 106.876 68.1859C106.6 67.2925 104.878 66.852 105.99 65.7795C107.317 64.5011 110.45 66.959 111.767 67.4119C113.514 68.013 114.548 67.803 116.231 67.1649C115.906 66.6647 114.909 66.8417 114.373 66.6585L114.375 66.6647Z" fill="#FFD08A"/>
<path d="M101.967 97.3558C102.797 96.3842 103.858 95.7049 104.723 94.76C106.031 93.3334 109.431 87.8555 110.782 87.4376C114.255 86.361 115.442 90.1303 117.183 92.1785C119.146 94.4903 121.997 96.0713 124.28 98.0496C124.587 96.905 121.449 95.0461 121.449 95.0461C121.449 95.0461 121.594 94.4368 121.96 93.179C122.144 92.5511 122.537 91.1595 123.264 90.3196C125.621 87.5982 127.523 87.8494 130.224 86.2025C130.755 85.8773 134.247 82.1677 134.618 81.6284C135.141 80.8708 136.142 79.8292 136.822 78.8925C137.729 77.645 138.306 75.9055 137.966 74.3781L137.552 76.2987C137.319 77.3815 136.715 78.3655 135.807 79.0016C133.419 80.6732 130.368 79.2672 127.875 80.4488C125.877 81.3957 125.623 83.866 122.677 83.3864C121.32 83.1661 119.035 81.5584 119.025 80.0412C119.006 77.116 124.534 73.5135 126.336 71.2923C127.756 69.5446 127.129 68.1097 130.759 66.3455C130.943 66.1356 130.038 66.1767 129.649 66.2117C129.142 66.257 128.293 66.4258 127.263 66.9672C127.63 65.1866 128.753 64.4599 130.555 64.7007C129.47 63.7806 128.491 62.9304 128.291 61.4112C129.84 62.2449 132.601 62.1419 134.033 64.1902C134.169 64.3837 134.088 64.4084 134.204 64.2911C134.346 64.147 135.063 61.9237 135.345 61.3617C135.568 60.915 135.899 60.246 136.318 59.9702C136.87 61.6685 137.898 62.9777 137.558 64.9087C137.898 64.5217 137.951 64.2437 138.271 63.8753C139.397 62.5763 140.829 62.2943 142.496 62.4404L141.835 64.3528C145.397 63.8526 146.151 66.8581 149.702 65.7341C149.222 66.5617 147.817 67.2575 146.923 67.3789C145.947 67.5107 144.739 67.2843 143.732 67.3789L146.076 68.2538C146.74 68.5009 147.374 68.8179 147.976 69.1864C150.314 70.6233 152.825 71.8049 155.673 71.0844C154.323 72.7065 152.03 72.865 150.065 72.6756L147.232 71.8008C148.656 73.2047 150.137 73.8305 152.098 74.1413C154.958 74.5942 158.594 73.6226 159.583 77.258C156.944 75.1933 155.139 78.0629 152.541 77.82C151.752 77.7459 151.019 77.4062 150.265 77.2107C149.991 77.1407 149.832 77.2354 149.91 77.3589C151.06 78.3429 152.226 80.0124 153.544 80.7267C156.116 82.1162 158.921 81.3093 160.145 84.8315C160.221 85.0477 160.271 85.517 160.207 86.1099C159.399 83.5181 155.994 84.5783 154.016 84.1686C152.617 83.8784 151.567 82.777 150.629 81.791C150.477 81.7581 150.491 82.003 150.53 82.0957C150.726 82.5609 151.697 83.8125 152.069 84.2633C153.205 85.6282 155.761 89.5703 157.401 89.8503C158.281 90.0006 159.842 89.9573 160.821 89.6156C158.029 92.4935 153.145 91.9253 150.94 88.5843C151.466 90.8116 153.011 93.2902 154.867 94.6385C156.322 95.6966 158.388 96.1228 159.173 98.0516C158.487 97.9755 159.117 97.0162 154.241 96.6209C152.677 96.4933 150.036 94.8032 149.086 93.5248C149.173 95.0729 150.067 96.868 151.037 98.0557C152.325 99.6326 154.77 100.489 154.434 102.992C154.434 102.992 152.119 101.102 149.292 100.623C147.218 100.271 145.825 97.8499 145.483 95.7893C143.641 99.9291 145.197 104.199 148.155 107.319C152.337 111.729 159.562 113.069 162.759 118.45C163.417 119.555 163.829 120.758 164.323 121.933C168.174 118.613 175.979 119.43 179.459 122.956C184.76 128.327 181.976 137.453 185.646 143.532C186.41 144.798 187.512 146.13 189.024 146.432C188.967 146.797 187.947 146.663 187.679 146.642C185.046 146.447 182.84 144.993 181.443 142.791C180.74 141.683 180.407 140.403 179.861 139.225C180.007 144.824 184.63 149.835 190.464 149.314C189.976 150.111 188.32 150.578 187.426 150.7C184.35 151.115 181.752 150.362 179.653 148.079L178.318 146.224C178.754 148.923 181.688 151.581 184.072 152.717C185.112 153.213 186.025 153.32 187.073 153.629C187.374 153.717 187.432 153.512 187.374 154.045C182.432 155.263 176.744 152.908 175.635 147.665C175.217 147.721 177.56 153.435 179.344 155.074C171.886 152.91 170.343 145.495 171.865 138.645C172.094 137.619 172.506 136.64 172.743 135.61C172.809 135.324 169.441 142.696 170.135 146.889C170.306 147.923 170.831 148.956 170.8 149.93C167.933 147.307 167.117 143.122 167.667 139.386C168.303 135.054 172.811 130.099 170.534 125.698C169.27 123.257 167.032 122.827 164.523 122.551C165.675 125.97 165.25 129.395 163.452 132.494C162.162 134.719 159.581 136.392 160.042 139.277C160.464 141.92 165.374 142.659 163.169 145.796C162.292 147.046 160.594 147.039 160.248 149.051C159.914 150.994 160.769 151.599 161.431 153.221C161.299 153.363 158.905 151.803 158.759 150.959C158.907 153.135 158.872 154.561 157.001 155.893L154.434 154.253C154.397 154.57 154.735 154.395 154.91 154.71C156.818 158.154 151.886 158.069 149.791 157.966C149.463 157.95 147.875 157.878 147.844 157.641C148.643 153.37 153.102 152.9 155.345 149.913C156.441 148.452 157.203 146.543 156.892 144.689C156.6 142.947 151.245 138.745 149.797 137.167C145.905 132.924 144.443 128.051 145.784 122.343C145.065 123.598 144.554 124.961 144.276 126.38L144.138 127.075C136.981 125.96 130.069 121.511 125.504 115.961C123.899 114.01 121.631 110.623 120.877 108.235C120.834 108.102 120.836 107.887 120.976 107.933C122.754 109.086 125.541 109.693 127.257 108.139C121.981 109.31 118.726 104.927 116.515 100.864C115.485 98.9698 113.963 94.4059 112.721 93.1296C111.087 91.4498 109.365 94.058 108.773 95.5217C108.561 96.0466 108.273 97.749 108.061 98.0002C107.657 98.4798 105.718 98.2925 105.317 99.0809C105.652 100.524 106.833 101.039 106.619 102.83C106.365 104.97 104.826 105.01 103.936 106.064C103.339 106.77 102.206 106.624 101.769 105.81C101.293 104.921 100.916 103.908 100.889 103.515C100.778 101.874 101.773 99.1097 101.956 97.3558H101.967Z" fill="#FFD08A"/>
<path d="M141.363 148.478C142.578 147.461 144.255 145.981 145.386 144.884C149.179 141.214 146.264 140.575 143.808 137.914C140.971 134.838 138.45 131.024 138.695 126.662L143.944 128.617C144.776 132.345 146.589 135.441 149.189 138.194C150.347 139.419 152.799 140.93 152.893 142.694C153.031 145.292 145.99 147.317 145.6 149.833C145.368 151.344 145.903 152.283 143.833 152.803L143.114 151.986H142.706L142.603 152.398L142.296 151.984C142.702 153.137 142.29 154.988 140.955 155.278C139.704 155.55 137.673 155.173 136.14 155.224C135.831 155.235 135.609 154.928 135.71 154.636C136.109 153.499 136.723 152.141 137.446 151.358C138.456 150.269 140.207 149.442 141.361 148.478H141.363Z" fill="#FFD08A"/>
<path d="M111.085 102.391C111.962 102.496 115.895 103.758 116.703 104.184C117.84 104.785 119.482 107.447 119.849 108.657C119.935 108.946 119.843 109.016 119.558 108.95C117.531 108.474 115.366 107.148 113.194 107.348C111.349 107.978 114.787 112.742 114.882 113.437C114.964 114.039 114.126 114.446 114.295 115.136C117.426 114.996 118.666 116.124 118.155 119.306C117.449 123.726 113.858 120.955 112.671 118.508C112.321 117.785 112.218 116.968 111.829 116.262C111.447 115.57 110.444 114.901 110.267 114.325C110.012 113.493 110.108 111.696 109.909 110.566C109.55 108.54 107.57 104.481 109.216 102.856C109.742 102.338 110.382 102.307 111.083 102.391H111.085Z" fill="#FFD08A"/>
</svg>
