<svg width="98" height="63" viewBox="0 0 98 63" fill="none" xmlns="http://www.w3.org/2000/svg">
<path d="M47.2487 30.6223C46.8054 30.1035 46.239 29.7408 45.777 29.2363C45.0786 28.4747 43.2637 25.5501 42.5422 25.327C40.6877 24.7521 40.0542 26.7645 39.1248 27.8581C38.0766 29.0924 36.5543 29.9364 35.3356 30.9926C35.1717 30.3816 36.8469 29.3891 36.8469 29.3891C36.8469 29.3891 36.7699 29.0638 36.5741 28.3923C36.4762 28.057 36.2661 27.3141 35.8779 26.8656C34.6196 25.4127 33.6043 25.5468 32.1624 24.6675C31.8786 24.4939 30.0143 22.5133 29.8163 22.2254C29.5369 21.8209 29.0023 21.2648 28.6394 20.7647C28.1554 20.0987 27.8474 19.17 28.0289 18.3545L28.25 19.3799C28.3743 19.958 28.6966 20.4834 29.1816 20.823C30.4564 21.7154 32.0854 20.9648 33.4163 21.5956C34.4832 22.1012 34.6185 23.4201 36.1913 23.164C36.9162 23.0464 38.136 22.188 38.1415 21.378C38.1514 19.8162 35.2003 17.8929 34.2379 16.707C33.4801 15.7739 33.8144 15.0078 31.8764 14.0659C31.7785 13.9538 32.2614 13.9758 32.4692 13.9945C32.7398 14.0187 33.193 14.1088 33.7429 14.3978C33.5472 13.4471 32.9477 13.0592 31.9853 13.1878C32.5649 12.6965 33.0874 12.2426 33.1941 11.4315C32.367 11.8766 30.8931 11.8216 30.1286 12.9152C30.0561 13.0185 30.0989 13.0317 30.0373 12.9691C29.9615 12.8921 29.5787 11.7051 29.428 11.4051C29.3092 11.1666 29.1321 10.8094 28.9088 10.6621C28.6141 11.5688 28.0652 12.2678 28.2467 13.2988C28.0652 13.0921 28.0366 12.9438 27.8661 12.747C27.2645 12.0535 26.5001 11.903 25.6102 11.981L25.9633 13.002C24.0616 12.7349 23.659 14.3396 21.7628 13.7395C22.019 14.1813 22.7692 14.5528 23.2465 14.6177C23.7679 14.688 24.4124 14.5671 24.9503 14.6177L23.6986 15.0848C23.3444 15.2166 23.0056 15.3859 22.6845 15.5826C21.4361 16.3498 20.0953 16.9806 18.5752 16.596C19.2957 17.462 20.5199 17.5467 21.5692 17.4455L23.0815 16.9784C22.3215 17.728 21.5307 18.0621 20.4836 18.2281C18.9569 18.4699 17.0156 17.9511 16.4876 19.8921C17.8966 18.7897 18.8601 20.3218 20.2471 20.1921C20.6683 20.1525 21.0599 19.9712 21.4625 19.8668C21.6088 19.8294 21.6935 19.88 21.6517 19.9459C21.0379 20.4713 20.4154 21.3626 19.7114 21.744C18.3387 22.4859 16.8407 22.055 16.1873 23.9355C16.1466 24.0509 16.1202 24.3015 16.1543 24.6181C16.5855 23.2343 18.4036 23.8004 19.4595 23.5816C20.2064 23.4267 20.7673 22.8387 21.2678 22.3122C21.3492 22.2946 21.3415 22.4254 21.3206 22.4749C21.2161 22.7233 20.698 23.3915 20.499 23.6322C19.8929 24.3609 18.5279 26.4656 17.6524 26.6151C17.1827 26.6953 16.349 26.6722 15.8266 26.4898C17.3169 28.0263 19.9248 27.7229 21.1017 25.9391C20.8212 27.1283 19.9963 28.4516 19.0053 29.1715C18.2288 29.7364 17.1255 29.9639 16.7065 30.9937C17.0728 30.9531 16.7362 30.4409 19.3397 30.2299C20.1745 30.1617 21.5846 29.2594 22.0916 28.5769C22.0454 29.4034 21.5681 30.3618 21.05 30.9959C20.3626 31.8378 19.057 32.295 19.2363 33.6315C19.2363 33.6315 20.4726 32.6226 21.9816 32.3665C23.0892 32.1785 23.8328 30.886 24.0154 29.7859C24.9987 31.9961 24.1682 34.2756 22.5888 35.9417C20.356 38.2959 16.4986 39.0114 14.7915 41.8844C14.4407 42.4746 14.2207 43.1164 13.9567 43.744C11.901 41.9712 7.73344 42.4076 5.8757 44.2903C3.04564 47.1577 4.53162 52.0299 2.57268 55.2754C2.16462 55.9513 1.57617 56.6624 0.768835 56.824C0.799632 57.0185 1.34409 56.9471 1.48707 56.9361C2.89275 56.8317 4.07075 56.0558 4.81649 54.8798C5.19156 54.2885 5.36974 53.6048 5.66122 52.9762C5.58313 55.9656 3.11494 58.6408 0 58.3627C0.260678 58.788 1.145 59.0375 1.62236 59.1024C3.26452 59.3244 4.65151 58.9221 5.77231 57.7033L6.48505 56.713C6.25187 58.1539 4.6856 59.5728 3.41301 60.1795C2.85756 60.4443 2.3703 60.5015 1.81045 60.6663C1.64986 60.7136 1.61906 60.6037 1.64986 60.8884C4.28854 61.539 7.32538 60.2817 7.91713 57.4823C8.14041 57.512 6.88982 60.563 5.9373 61.4379C9.91896 60.2828 10.7428 56.3239 9.92996 52.6662C9.80787 52.1189 9.58789 51.5957 9.4614 51.0462C9.4262 50.8934 11.2245 54.8292 10.8539 57.068C10.7626 57.6197 10.4821 58.1715 10.4986 58.6913C12.0297 57.2911 12.4652 55.0567 12.1716 53.0619C11.8317 50.7495 9.4251 48.104 10.6405 45.7542C11.3158 44.4507 12.5103 44.221 13.85 44.0737C13.2352 45.8993 13.4618 47.7281 14.422 49.3822C15.1105 50.5703 16.4887 51.4639 16.2423 53.0037C16.0168 54.4149 13.3958 54.8094 14.5727 56.4844C15.0412 57.1515 15.9475 57.1482 16.1323 58.222C16.3105 59.2595 15.8541 59.5827 15.501 60.4487C15.5714 60.5246 16.8495 59.6915 16.9276 59.2409C16.8484 60.4026 16.8671 61.1642 17.8658 61.8753L19.2363 60.9994C19.2561 61.1686 19.0757 61.0752 18.9822 61.2434C17.9637 63.0821 20.5969 63.037 21.7155 62.9821C21.8903 62.9733 22.7384 62.9348 22.7549 62.8084C22.3281 60.5279 19.9479 60.2773 18.7501 58.6825C18.165 57.9022 17.758 56.8834 17.9241 55.8931C18.0803 54.9633 20.9389 52.7201 21.7122 51.8771C23.7899 49.6119 24.5708 47.0104 23.8548 43.9627C24.2386 44.6332 24.5114 45.3607 24.6599 46.118L24.7336 46.4895C28.5547 45.8938 32.2449 43.5187 34.6823 40.5556C35.5391 39.5137 36.7501 37.7057 37.1526 36.4308C37.1757 36.3594 37.1746 36.2451 37.0998 36.2693C36.1506 36.8847 34.6625 37.209 33.7462 36.3792C36.5631 37.0045 38.301 34.6646 39.4812 32.4951C40.0311 31.4839 40.8439 29.0473 41.5072 28.3659C42.3794 27.469 43.2989 28.8616 43.6146 29.643C43.7279 29.9233 43.8819 30.8322 43.9952 30.9663C44.2107 31.2223 45.2458 31.1223 45.4602 31.5433C45.281 32.3137 44.6507 32.5885 44.7651 33.5447C44.896 34.6503 45.6692 34.7064 46.1499 35.2186C46.5162 35.6087 47.1497 35.5318 47.395 35.057C47.6403 34.5822 47.8096 34.1096 47.8228 33.9107C47.8822 33.0347 47.351 31.5587 47.2531 30.6223H47.2487Z" fill="#FFD08A"/>
<path d="M26.2151 57.9165C25.5662 57.3735 24.6708 56.5833 24.067 55.9975C22.0421 54.0379 23.5984 53.6971 24.9095 52.2761C26.4241 50.634 27.7704 48.5975 27.6395 46.2686L24.8369 47.3127C24.3926 49.3031 23.4246 50.9561 22.0366 52.4255C21.4184 53.0795 20.1095 53.8862 20.0589 54.8281C19.9852 56.2151 23.7447 57.2966 23.9526 58.6396C24.0769 59.4464 23.7909 59.9475 24.8963 60.2256L25.2802 59.7893H25.498L25.553 60.0091L25.7169 59.7882C25.5002 60.4036 25.7202 61.3917 26.4329 61.5467C27.0939 61.6896 28.1619 61.495 28.977 61.517C29.1552 61.5214 29.2838 61.3467 29.2245 61.1785C29.0111 60.5773 28.6866 59.8651 28.306 59.4541C27.7671 58.8727 26.8322 58.4308 26.2162 57.9165H26.2151Z" fill="#FFD08A"/>
<path d="M42.3805 33.3104C41.9119 33.3665 39.8122 34.0402 39.381 34.2677C38.7739 34.5886 37.8972 36.0097 37.7014 36.656C37.6553 36.8099 37.7047 36.8472 37.8565 36.8121C38.9388 36.5582 40.0948 35.8504 41.2541 35.957C42.2397 36.2933 40.4039 38.8365 40.3533 39.208C40.3093 39.529 40.757 39.7466 40.6668 40.1148C38.9949 40.04 38.3328 40.6423 38.6056 42.3415C38.9828 44.7012 40.9 43.2218 41.5335 41.915C41.7205 41.5293 41.7755 41.0929 41.9834 40.7159C42.1869 40.3467 42.7225 39.9895 42.8171 39.6817C42.9535 39.2377 42.9018 38.2782 43.0085 37.6748C43.1999 36.5933 44.2569 34.426 43.3781 33.5588C43.0976 33.2819 42.7555 33.2654 42.3816 33.3104H42.3805Z" fill="#FFD08A"/>
<path d="M57.2612 14.2362C56.521 13.9834 56.0711 12.9877 55.4508 12.5294C55.0317 12.2194 53.5381 11.771 54.4103 11.0489C55.3716 10.2521 56.1921 10.9929 57.1985 10.872C58.0114 10.7742 59.0365 9.97623 59.9021 9.83665C59.1498 9.26733 58.1863 9.55529 57.3459 9.4256C56.9049 9.35745 56.3835 9.02114 55.9491 8.9486C55.1736 8.82001 54.2299 9.4234 54.1243 8.02209C55.7115 7.41211 56.9005 6.60649 57.2645 4.83589C56.895 4.93481 56.7355 5.23815 56.3527 5.40741C55.7577 5.67008 55.0174 5.69756 54.4103 5.8822C54.077 5.98332 53.4017 6.40756 53.2026 6.43833C52.8242 6.49768 52.3689 5.7646 52.4986 5.2975C52.8715 3.95994 53.9296 3.83794 53.7338 1.93546C53.7228 1.82335 53.6898 1.4189 53.5293 1.42879C53.2829 2.60149 52.0609 3.1741 51.38 3.95224C50.9643 4.42704 51.0171 5.10956 50.1987 4.92272C48.209 4.46881 50.4011 0.608883 48.3619 0C48.5841 0.631963 48.44 1.24744 48.1617 1.83214C47.6459 2.91472 47.5667 2.5938 47.5865 4.01489C47.5931 4.49958 47.8911 5.181 46.9045 4.91942C45.8849 4.64905 45.126 1.6497 43.4145 1.97832C44.1174 2.75756 44.058 3.79508 44.433 4.64026C44.5639 4.93481 45.4229 5.91298 45.3437 6.04597C43.9986 7.20988 42.4235 5.42829 41.2609 5.39532C40.6944 5.37883 39.8255 5.74482 39.2382 5.82615C39.3482 6.14049 39.7518 6.002 40.0103 6.09652C40.9881 6.45152 41.3742 7.25054 42.1672 7.67588C42.7106 7.96823 43.6917 7.89789 43.5124 8.72219C42.5104 9.40691 41.1641 8.92882 40.0433 9.43329C39.7375 9.57067 38.3417 10.6675 38.5793 10.9907C39.1183 10.6137 39.7474 10.4961 40.3975 10.5466C40.8737 10.584 41.273 10.817 41.7229 10.8687C42.5005 10.9588 44.2812 10.5499 43.464 11.9743C42.891 12.9734 41.713 13.0086 41.0486 13.8449C40.8902 14.045 40.2138 15.2506 40.337 15.3858C40.7142 15.2946 41.0167 14.9869 41.3775 14.8341C41.8262 14.6429 42.3355 14.6022 42.7524 14.4505C43.3804 14.223 45.0336 13.1163 45.347 14.1747C45.5219 14.7671 44.5562 15.6595 44.3241 16.3508C44.0998 17.019 43.9964 17.7796 44.1844 18.4632C44.6211 18.3632 44.653 17.8203 45.0039 17.4697C45.3855 17.0883 45.8904 16.9179 46.2699 16.4267C46.5536 16.0574 46.7659 15.2254 47.2136 15.1627C48.495 14.9825 48.0869 17.351 48.2783 18.0522C48.3542 18.3313 48.8349 18.771 49.0042 19.0842C49.1329 19.3227 49.09 19.5986 49.2957 19.7799C49.6642 19.4337 49.3617 18.8677 49.3991 18.4577C49.442 17.9862 49.8226 17.5653 49.8908 17.0795C49.948 16.6717 49.7665 15.6914 49.8028 15.5672C49.8622 15.3595 50.3758 15.1429 50.6035 15.1638C51.3426 15.232 51.4691 16.1508 51.787 16.63C52.2413 17.3136 53.2158 17.7433 53.9659 18.0214C54.0638 17.429 53.3731 16.8795 53.2697 16.4629C53.1806 16.1035 53.4116 15.5463 53.2576 15.0484C53.1102 14.5714 52.1907 14.3362 52.7846 13.7636C53.493 13.0811 55.1659 14.3934 55.8688 14.6352C56.8015 14.9561 57.3536 14.844 58.2523 14.5033C58.0785 14.2362 57.5461 14.3307 57.2601 14.2329L57.2612 14.2362Z" fill="#FFD08A"/>
<path d="M50.6365 30.6223C51.0798 30.1035 51.6462 29.7408 52.1082 29.2363C52.8066 28.4747 54.6215 25.5501 55.343 25.327C57.1975 24.7521 57.831 26.7645 58.7604 27.8581C59.8086 29.0924 61.3309 29.9364 62.5496 30.9926C62.7135 30.3816 61.0383 29.3891 61.0383 29.3891C61.0383 29.3891 61.1153 29.0638 61.3111 28.3923C61.409 28.057 61.6191 27.3141 62.0073 26.8656C63.2656 25.4127 64.2809 25.5468 65.7228 24.6675C66.0066 24.4939 67.8709 22.5133 68.0689 22.2254C68.3483 21.8209 68.8829 21.2648 69.2458 20.7647C69.7298 20.0987 70.0378 19.17 69.8563 18.3545L69.6352 19.3799C69.5109 19.958 69.1886 20.4834 68.7036 20.823C67.4288 21.7154 65.7998 20.9648 64.4689 21.5956C63.402 22.1012 63.2667 23.4201 61.6939 23.164C60.969 23.0464 59.7492 22.188 59.7437 21.378C59.7338 19.8162 62.6849 17.8929 63.6473 16.707C64.4051 15.7739 64.0708 15.0078 66.0088 14.0659C66.1067 13.9538 65.6238 13.9758 65.416 13.9945C65.1454 14.0187 64.6922 14.1088 64.1423 14.3978C64.338 13.4471 64.9375 13.0592 65.8999 13.1878C65.3203 12.6965 64.7978 12.2426 64.6911 11.4315C65.5182 11.8766 66.9921 11.8216 67.7566 12.9152C67.8291 13.0185 67.7863 13.0317 67.8478 12.9691C67.9237 12.8921 68.3065 11.7051 68.4572 11.4051C68.576 11.1666 68.7531 10.8094 68.9764 10.6621C69.2711 11.5688 69.82 12.2678 69.6385 13.2988C69.82 13.0921 69.8486 12.9438 70.0191 12.747C70.6207 12.0535 71.3851 11.903 72.275 11.981L71.9219 13.002C73.8236 12.7349 74.2262 14.3396 76.1224 13.7395C75.8662 14.1813 75.116 14.5528 74.6387 14.6177C74.1173 14.688 73.4728 14.5671 72.9349 14.6177L74.1866 15.0848C74.5408 15.2166 74.8795 15.3859 75.2007 15.5826C76.4491 16.3498 77.7899 16.9806 79.31 16.596C78.5895 17.462 77.3653 17.5467 76.316 17.4455L74.8037 16.9784C75.5637 17.728 76.3545 18.0621 77.4016 18.2281C78.9283 18.4699 80.8696 17.9511 81.3976 19.8921C79.9886 18.7897 79.0251 20.3218 77.6381 20.1921C77.2169 20.1525 76.8253 19.9712 76.4227 19.8668C76.2764 19.8294 76.1917 19.88 76.2335 19.9459C76.8473 20.4713 77.4698 21.3626 78.1738 21.744C79.5465 22.4859 81.0445 22.055 81.6979 23.9355C81.7386 24.0509 81.765 24.3015 81.7309 24.6181C81.2997 23.2343 79.4816 23.8004 78.4256 23.5816C77.6788 23.4267 77.1179 22.8387 76.6174 22.3122C76.536 22.2946 76.5437 22.4254 76.5646 22.4749C76.6691 22.7233 77.1872 23.3915 77.3862 23.6322C77.9923 24.3609 79.3573 26.4656 80.2328 26.6151C80.7025 26.6953 81.5362 26.6722 82.0586 26.4898C80.5683 28.0263 77.9604 27.7229 76.7835 25.9391C77.064 27.1283 77.8889 28.4516 78.8799 29.1715C79.6564 29.7364 80.7597 29.9639 81.1787 30.9937C80.8124 30.9531 81.149 30.4409 78.5455 30.2299C77.7107 30.1617 76.3006 29.2594 75.7936 28.5769C75.8398 29.4034 76.3171 30.3618 76.8352 30.9959C77.5226 31.8378 78.8282 32.295 78.6489 33.6315C78.6489 33.6315 77.4126 32.6226 75.9036 32.3665C74.796 32.1785 74.0524 30.886 73.8698 29.7859C72.8865 31.9961 73.7169 34.2756 75.2964 35.9417C77.5292 38.2959 81.3866 39.0114 83.0937 41.8844C83.4445 42.4746 83.6645 43.1164 83.9285 43.744C85.9842 41.9712 90.1518 42.4076 92.0095 44.2903C94.8396 47.1577 93.3536 52.0299 95.3125 55.2754C95.7206 55.9513 96.309 56.6624 97.1164 56.824C97.0856 57.0185 96.5411 56.9471 96.3981 56.9361C94.9924 56.8317 93.8144 56.0558 93.0687 54.8798C92.6936 54.2885 92.5155 53.6048 92.224 52.9762C92.3021 55.9656 94.7703 58.6408 97.8852 58.3627C97.6245 58.788 96.7402 59.0375 96.2628 59.1024C94.6207 59.3244 93.2337 58.9221 92.1129 57.7033L91.4002 56.713C91.6333 58.1539 93.1996 59.5728 94.4722 60.1795C95.0276 60.4443 95.5149 60.5015 96.0748 60.6663C96.2353 60.7136 96.2661 60.6037 96.2353 60.8884C93.5967 61.539 90.5598 60.2817 89.9681 57.4823C89.7448 57.512 90.9954 60.563 91.9479 61.4379C87.9662 60.2828 87.1424 56.3239 87.9552 52.6662C88.0773 52.1189 88.2973 51.5957 88.4238 51.0462C88.459 50.8934 86.6606 54.8292 87.0313 57.068C87.1226 57.6197 87.4031 58.1715 87.3866 58.6913C85.8555 57.2911 85.42 55.0567 85.7136 53.0619C86.0535 50.7495 88.4601 48.104 87.2447 45.7542C86.5694 44.4507 85.3749 44.221 84.0352 44.0737C84.65 45.8993 84.4234 47.7281 83.4632 49.3822C82.7747 50.5703 81.3965 51.4639 81.6429 53.0037C81.8684 54.4149 84.4894 54.8094 83.3125 56.4844C82.844 57.1515 81.9377 57.1482 81.7529 58.222C81.5747 59.2595 82.0311 59.5827 82.3842 60.4487C82.3138 60.5246 81.0357 59.6915 80.9576 59.2409C81.0368 60.4026 81.0181 61.1642 80.0194 61.8753L78.6489 60.9994C78.6291 61.1686 78.8095 61.0752 78.903 61.2434C79.9215 63.0821 77.2883 63.037 76.1697 62.9821C75.9949 62.9733 75.1468 62.9348 75.1303 62.8084C75.5571 60.5279 77.9373 60.2773 79.1351 58.6825C79.7202 57.9022 80.1272 56.8834 79.9611 55.8931C79.8049 54.9633 76.9463 52.7201 76.173 51.8771C74.0953 49.6119 73.3144 47.0104 74.0304 43.9627C73.6466 44.6332 73.3738 45.3607 73.2253 46.118L73.1516 46.4895C69.3305 45.8938 65.6403 43.5187 63.2029 40.5556C62.3461 39.5137 61.1351 37.7057 60.7326 36.4308C60.7095 36.3594 60.7106 36.2451 60.7853 36.2693C61.7346 36.8847 63.2227 37.209 64.139 36.3792C61.3221 37.0045 59.5843 34.6646 58.4041 32.4951C57.8541 31.4839 57.0413 29.0473 56.378 28.3659C55.5058 27.469 54.5863 28.8616 54.2706 29.643C54.1573 29.9233 54.0033 30.8322 53.89 30.9663C53.6745 31.2223 52.6394 31.1223 52.425 31.5433C52.6042 32.3137 53.2345 32.5885 53.1201 33.5447C52.9848 34.6877 52.1632 34.7086 51.688 35.2713C51.369 35.6483 50.7641 35.5703 50.5309 35.1361C50.2768 34.6613 50.0756 34.1206 50.0613 33.9107C50.0019 33.0347 50.5331 31.5587 50.631 30.6223H50.6365Z" fill="#FFD08A"/>
<path d="M71.67 57.9165C72.3189 57.3735 73.2142 56.5833 73.8181 55.9975C75.843 54.0379 74.2866 53.6971 72.9755 52.2761C71.461 50.634 70.1147 48.5975 70.2456 46.2686L73.0481 47.3127C73.4925 49.3031 74.4604 50.9561 75.8485 52.4255C76.4667 53.0795 77.7755 53.8862 77.8261 54.8281C77.8998 56.2151 74.1404 57.2966 73.9325 58.6396C73.8082 59.4464 74.0942 59.9475 72.9887 60.2256L72.6049 59.7893H72.3871L72.3321 60.0091L72.1682 59.7882C72.3849 60.4036 72.1649 61.3917 71.4522 61.5467C70.7845 61.6918 69.7 61.4906 68.8817 61.5181C68.7167 61.5236 68.5979 61.3598 68.6518 61.2038C68.8652 60.5971 69.193 59.8717 69.579 59.4541C70.118 58.8727 71.0529 58.4308 71.6689 57.9165H71.67Z" fill="#FFD08A"/>
<path d="M55.5045 33.3104C55.9731 33.3665 58.0728 34.0402 58.504 34.2677C59.1111 34.5886 59.9877 36.0097 60.1835 36.656C60.2297 36.8099 60.1802 36.8472 60.0284 36.8121C58.9461 36.5582 57.7901 35.8504 56.6308 35.957C55.6453 36.2933 57.481 38.8365 57.5316 39.208C57.5756 39.529 57.128 39.7466 57.2182 40.1148C58.89 40.04 59.5522 40.6423 59.2794 42.3415C58.9021 44.7012 56.985 43.2218 56.3514 41.915C56.1644 41.5293 56.1095 41.0929 55.9016 40.7159C55.6981 40.3467 55.1624 39.9895 55.0678 39.6817C54.9315 39.2377 54.9832 38.2782 54.8765 37.6748C54.6851 36.5933 53.6281 34.426 54.5069 33.5588C54.7874 33.2819 55.1294 33.2654 55.5034 33.3104H55.5045Z" fill="#FFD08A"/>
</svg>
